<svg xmlns="http://www.w3.org/2000/svg" xmlns:svg="http://www.w3.org/2000/svg" id="svg5" width="330.206" height="330.206" version="1.1" viewBox="0 0 87.367 87.367"><g id="layer1" transform="translate(-66.413925,-86.567733)"><rect style="fill:#fff;fill-opacity:1;stroke:none;stroke-width:2.367;stroke-dasharray:none;stroke-opacity:1" id="rect2379" width="87.367" height="87.367" x="66.414" y="86.568" ry="11.215"/><path id="rect113" d="m 72.797624,87.751233 c -2.880845,0 -5.200199,2.319354 -5.200199,5.200202 v 74.600095 c 0,2.88084 2.319354,5.19968 5.200199,5.19968 h 74.599586 c 2.88084,0 5.2002,-2.31884 5.2002,-5.19968 V 92.951435 c 0,-2.880848 -2.31936,-5.200202 -5.2002,-5.200202 z m 1.575615,3.864881 h 71.448351 c 1.61276,0 2.91094,1.298691 2.91094,2.911451 v 71.447825 c 0,1.61276 -1.29818,2.91094 -2.91094,2.91094 H 74.373239 c -1.612757,0 -2.910934,-1.29818 -2.910934,-2.91094 V 94.527565 c 0,-1.61276 1.298177,-2.911451 2.910934,-2.911451 z" style="fill:#333;stroke:#333;stroke-width:2.367;stroke-dasharray:none;stroke-opacity:1"/><g id="g4230" transform="matrix(0.66674934,0,0,0.66674934,-147.61617,39.633549)" style="fill:#333;stroke:#333;stroke-width:3.55006;stroke-dasharray:none;stroke-opacity:1"><g id="g5070" transform="translate(247.87196,-24.521044)" style="fill:#333;stroke:#333;stroke-width:3.55006;stroke-dasharray:none;stroke-opacity:1"><rect style="fill:#333;fill-opacity:1;stroke:#333;stroke-width:3.55006;stroke-dasharray:none;stroke-opacity:1" id="rect4117" width="29.743" height="6.276" x="148.761" y="10.939" ry="3.138" transform="rotate(45)"/><rect style="fill:#333;fill-opacity:1;stroke:#333;stroke-width:3.55006;stroke-dasharray:none;stroke-opacity:1" id="rect4223" width="29.743" height="6.276" x="-40.682" y="172.228" ry="3.138" transform="rotate(-45)"/><rect style="fill:#333;fill-opacity:1;stroke:#333;stroke-width:3.55006;stroke-dasharray:none;stroke-opacity:1" id="rect4225" width="23.934" height="6.276" x="117.293" y="146.914" ry="3.138"/><rect style="fill:#333;fill-opacity:1;stroke:#333;stroke-width:3.55006;stroke-dasharray:none;stroke-opacity:1" id="rect4232" width="29.743" height="6.276" x="-35.854" y="195.554" ry="3.138" transform="matrix(-0.70710678,0.70710678,0.70710678,0.70710678,0,0)"/><rect style="fill:#333;fill-opacity:1;stroke:#333;stroke-width:3.55006;stroke-dasharray:none;stroke-opacity:1" id="rect4234" width="29.743" height="6.276" x="-225.296" y="-12.386" ry="3.138" transform="matrix(-0.70710678,-0.70710678,-0.70710678,0.70710678,0,0)"/></g></g></g></svg>